<?xml version="1.0" encoding="iso-8859-1"?>
<!-- Generator: Adobe Illustrator 19.0.0, SVG Export Plug-In . SVG Version: 6.00 Build 0)  -->
<svg version="1.1" id="Layer_1" xmlns="http://www.w3.org/2000/svg" xmlns:xlink="http://www.w3.org/1999/xlink" x="0px" y="0px"
	 viewBox="0 0 512.001 512.001" style="enable-background:new 0 0 512.001 512.001;" xml:space="preserve">
<g>
	<g>
		<path d="M173.702,78.617c-16.321-10.193-35.176-15.549-54.484-15.364C64.401,63.659,19.2,108.576,18.457,163.382
			c-0.547,40.341,22.827,77.194,59.551,93.886c20.874,9.49,34.363,30.079,34.363,52.454v27.302h0.001
			c0,4.205,3.407,7.613,7.613,7.613s7.613-3.407,7.613-7.613v-27.301c0-28.331-16.992-54.361-43.288-66.315
			c-31.22-14.19-51.093-45.521-50.628-79.818c0.631-46.585,39.054-84.765,85.65-85.11c16.403-0.142,32.442,4.392,46.306,13.051
			c3.564,2.226,8.261,1.143,10.489-2.425C178.354,85.54,177.269,80.844,173.702,78.617z"/>
	</g>
</g>
<g>
	<g>
		<path d="M393.265,63.259c-12.043-0.184-23.749,1.77-34.912,5.702C344.546,27.95,306.152,0,262.156,0
			c-20.093,0-39.52,5.86-56.183,16.948c-3.5,2.33-4.45,7.055-2.12,10.555c2.331,3.5,7.055,4.448,10.555,2.12
			c14.157-9.419,30.666-14.398,47.748-14.398c39.897,0,74.373,27.03,83.838,65.733c0.537,2.2,2.026,4.044,4.061,5.036
			c2.035,0.993,4.406,1.026,6.468,0.094c11.51-5.199,23.85-7.747,36.56-7.605c47.446,0.572,85.685,39.659,85.242,87.13
			c-0.313,33.417-20.185,63.952-50.627,77.793c-26.3,11.957-43.293,37.994-43.293,66.33v136.698h-28.689v-91.183
			c0-13.153-10.701-23.853-23.853-23.853h-0.176c-13.153,0-23.853,10.701-23.853,23.853v91.183h-20.044v-91.183
			c0-13.153-10.701-23.853-23.853-23.853h-0.176c-13.153,0-23.853,10.701-23.853,23.853v91.183h-20.044v-91.183
			c0-13.153-10.701-23.853-23.853-23.853h-0.176c-13.153,0-23.853,10.701-23.853,23.853v91.183h-44.381v-40.866
			c0-4.205-3.407-7.613-7.613-7.613c-4.205,0-7.613,3.408-7.613,7.613v48.479v0.025v50.315c0,4.205,3.407,7.613,7.613,7.613h272.014
			c4.205,0,7.613-3.407,7.613-7.613v-50.002c0.004-0.106,0.016-0.208,0.016-0.315V309.735c0-22.381,13.491-42.977,34.37-52.469
			c35.807-16.28,59.183-52.2,59.55-91.51C494.069,109.911,449.083,63.932,393.265,63.259z M323.058,355.25
			c0-4.758,3.87-8.628,8.628-8.628h0.176c4.758,0,8.628,3.87,8.628,8.628v91.183h-17.431V355.25z M255.132,355.25
			c0-4.758,3.87-8.628,8.628-8.628h0.176c4.758,0,8.628,3.87,8.628,8.628v91.183h-17.431V355.25z M187.205,355.25
			c0-4.758,3.87-8.628,8.628-8.628h0.176c4.757,0,8.628,3.87,8.628,8.628v91.183h-17.431V355.25z M384.386,496.774H127.598v-35.09
			h256.788V496.774z"/>
	</g>
</g>
<g>
	<g>
		<path d="M122.11,97.887c-0.019,0-0.039,0-0.058,0c-36.076,0.267-65.824,29.828-66.312,65.897
			c-0.36,26.547,15.023,50.801,39.191,61.787c1.022,0.464,2.092,0.684,3.146,0.684c2.894,0,5.66-1.659,6.936-4.464
			c1.74-3.828,0.048-8.341-3.781-10.081c-18.666-8.484-30.546-27.216-30.267-47.72c0.379-27.849,23.347-50.673,51.203-50.878
			c4.204-0.031,7.587-3.464,7.556-7.67C129.691,101.258,126.288,97.887,122.11,97.887z"/>
	</g>
</g>
<g>
</g>
<g>
</g>
<g>
</g>
<g>
</g>
<g>
</g>
<g>
</g>
<g>
</g>
<g>
</g>
<g>
</g>
<g>
</g>
<g>
</g>
<g>
</g>
<g>
</g>
<g>
</g>
<g>
</g>
</svg>
