<svg width="16" height="16" viewBox="0 0 16 16" fill="none" xmlns="http://www.w3.org/2000/svg">
<path fill-rule="evenodd" clip-rule="evenodd" d="M8 1C4.15 1 1 4.15 1 8C1 11.85 4.15 15 8 15C11.85 15 15 11.85 15 8C15 4.15 11.85 1 8 1ZM8 14C4.7 14 2 11.3 2 8C2 4.7 4.7 2 8 2C11.3 2 14 4.7 14 8C14 11.3 11.3 14 8 14ZM8 12C8.41421 12 8.75 11.6642 8.75 11.25C8.75 10.8358 8.41421 10.5 8 10.5C7.58579 10.5 7.25 10.8358 7.25 11.25C7.25 11.6642 7.58579 12 8 12ZM8.5 4H7.75C6.5 4 5.5 5 5.5 6.25V6.5H6.5V6.25C6.5 5.55 7.05 5 7.75 5H8.5C9.2 5 9.75 5.55 9.75 6.25C9.75 6.95 9.2 7.5 8.5 7.5H7.5V9.5H8.5V8.5C9.75 8.5 10.75 7.5 10.75 6.25C10.75 5 9.75 4 8.5 4Z" fill="#FBD10E"/>
<mask id="mask0" mask-type="alpha" maskUnits="userSpaceOnUse" x="1" y="1" width="14" height="14">
<path fill-rule="evenodd" clip-rule="evenodd" d="M8 1C4.15 1 1 4.15 1 8C1 11.85 4.15 15 8 15C11.85 15 15 11.85 15 8C15 4.15 11.85 1 8 1ZM8 14C4.7 14 2 11.3 2 8C2 4.7 4.7 2 8 2C11.3 2 14 4.7 14 8C14 11.3 11.3 14 8 14ZM8 12C8.41421 12 8.75 11.6642 8.75 11.25C8.75 10.8358 8.41421 10.5 8 10.5C7.58579 10.5 7.25 10.8358 7.25 11.25C7.25 11.6642 7.58579 12 8 12ZM8.5 4H7.75C6.5 4 5.5 5 5.5 6.25V6.5H6.5V6.25C6.5 5.55 7.05 5 7.75 5H8.5C9.2 5 9.75 5.55 9.75 6.25C9.75 6.95 9.2 7.5 8.5 7.5H7.5V9.5H8.5V8.5C9.75 8.5 10.75 7.5 10.75 6.25C10.75 5 9.75 4 8.5 4Z" fill="white"/>
</mask>
<g mask="url(#mask0)">
</g>
</svg>
