<svg width="20" height="20" viewBox="0 0 20 20" fill="none" xmlns="http://www.w3.org/2000/svg">
<path d="M17.6562 0H2.34375C1.05141 0 0 1.05141 0 2.34375V4.6875C0 5.11897 0.349778 5.46875 0.78125 5.46875C1.21272 5.46875 1.5625 5.11897 1.5625 4.6875V2.34375C1.5625 1.91297 1.91297 1.5625 2.34375 1.5625H17.6562C18.087 1.5625 18.4375 1.91297 18.4375 2.34375V17.6562C18.4375 18.087 18.087 18.4375 17.6562 18.4375H2.34375C1.91297 18.4375 1.5625 18.087 1.5625 17.6562V15.3125C1.5625 14.881 1.21272 14.5312 0.78125 14.5312C0.349778 14.5312 0 14.881 0 15.3125V17.6562C0 18.9486 1.05141 20 2.34375 20H17.6562C18.9486 20 20 18.9486 20 17.6562V2.34375C20 1.05141 18.9486 0 17.6562 0Z" fill="black"/>
<path d="M9.92742 5.69756C9.62233 5.39247 9.12767 5.39247 8.82258 5.69756C8.51748 6.00266 8.51748 6.49731 8.82258 6.80241L11.2389 9.21873H0.781251C0.349779 9.21873 0 9.56851 0 9.99998C0 10.4315 0.349778 10.7812 0.78125 10.7812H11.2389L8.82258 13.1976C8.51748 13.5027 8.51748 13.9973 8.82258 14.3024C9.12767 14.6075 9.62233 14.6075 9.92742 14.3024L14.2298 9.99998L9.92742 5.69756Z" fill="black"/>
</svg>
