<svg width="25" height="24" viewBox="0 0 25 24" fill="none" xmlns="http://www.w3.org/2000/svg">
<path d="M12.8 24C19.4274 24 24.8 18.6274 24.8 12C24.8 5.37258 19.4274 0 12.8 0C6.17257 0 0.799988 5.37258 0.799988 12C0.799988 18.6274 6.17257 24 12.8 24Z" fill="url(#paint0_linear)"/>
<path d="M18.6421 6.90789L16.4908 17.7039C16.4908 17.7039 16.1947 18.4539 15.3658 18.0987L10.4316 14.3092L8.6355 13.4408L5.61576 12.4145C5.61576 12.4145 5.14208 12.2566 5.1026 11.8816C5.06313 11.5263 5.63549 11.3289 5.63549 11.3289L17.6553 6.61183C17.6553 6.61183 18.6421 6.17762 18.6421 6.90789Z" fill="white"/>
<path d="M10.0566 17.5855C10.0566 17.5855 9.91843 17.5658 9.7408 16.9934C9.56317 16.4211 8.65527 13.4211 8.65527 13.4211L15.9184 8.80263C15.9184 8.80263 16.3329 8.54605 16.3131 8.80263C16.3131 8.80263 16.3921 8.84211 16.1553 9.05921C15.9381 9.27632 10.4513 14.1908 10.4513 14.1908" fill="#D2E5F1"/>
<path d="M12.3263 15.75L10.3724 17.5263C10.3724 17.5263 10.2145 17.6447 10.0566 17.5658L10.4316 14.25" fill="#B5CFE4"/>
<defs>
<linearGradient id="paint0_linear" x1="12.8019" y1="0" x2="12.8019" y2="23.8998" gradientUnits="userSpaceOnUse">
<stop stop-color="#42BCE8"/>
<stop offset="1" stop-color="#23A7DC"/>
</linearGradient>
</defs>
</svg>
