<svg width="20" height="20" viewBox="0 0 20 20" fill="none" xmlns="http://www.w3.org/2000/svg">
<path fill-rule="evenodd" clip-rule="evenodd" d="M3.75 10.625L4.63125 11.5062L9.375 6.76875V18.75H10.625V6.76875L15.3687 11.5062L16.25 10.625L10 4.375L3.75 10.625ZM3.75 5V2.5H16.25V5H17.5V2.5C17.5 1.80964 16.9404 1.25 16.25 1.25H3.75C3.05964 1.25 2.5 1.80964 2.5 2.5V5H3.75Z" fill="#1F1F1F"/>
<mask id="mask0" mask-type="alpha" maskUnits="userSpaceOnUse" x="2" y="1" width="16" height="18">
<path fill-rule="evenodd" clip-rule="evenodd" d="M3.75 10.625L4.63125 11.5062L9.375 6.76875V18.75H10.625V6.76875L15.3687 11.5062L16.25 10.625L10 4.375L3.75 10.625ZM3.75 5V2.5H16.25V5H17.5V2.5C17.5 1.80964 16.9404 1.25 16.25 1.25H3.75C3.05964 1.25 2.5 1.80964 2.5 2.5V5H3.75Z" fill="white"/>
</mask>
<g mask="url(#mask0)">
</g>
</svg>
