<svg width="24" height="25" viewBox="0 0 24 25" fill="none" xmlns="http://www.w3.org/2000/svg">
<g clip-path="url(#clip0)">
<path d="M12 23.9C18.6 23.9 24 18.5 24 11.9C24 5.30002 18.6 -0.0999756 12 -0.0999756C5.4 2.44156e-05 0 5.40002 0 12C0 18.6 5.4 23.9 12 23.9Z" fill="#784A9A"/>
<path fill-rule="evenodd" clip-rule="evenodd" d="M14.3 16C14.9 16 15.6 15.4 15.8 14.8C16 14.2 15.6 14 15.2 13.8C15 13.6 14.7 13.4 14.4 13.2C13.9 12.8 13.4 12.8 13 13.4C12.8 13.7 12.5 13.7 12.2 13.6C11.3 13.2 10.7 12.6 10.3 11.7C10.1 11.3 10.1 11 10.5 10.7C10.7 10.6 10.9 10.4 10.9 10.1C10.9 9.7 9.9 8.3 9.5 8.2C9.3 8.1 9.2 8.1 9 8.2C8.1 8.5 7.7 9.3 8.1 10.2C9.2 12.9 11.1 14.8 13.8 15.9C14 16 14.2 16 14.3 16Z" fill="white"/>
<path fill-rule="evenodd" clip-rule="evenodd" d="M12.3 8.09998C12.2 8.09998 11.9 7.99998 11.8 8.29998C11.8 8.49998 12 8.49998 12.2 8.49998C14.1 8.79998 15.1 9.69998 15.3 11.7C15.3 11.9 15.3 12.2 15.5 12.2C15.8 12.2 15.7 11.9 15.7 11.7C15.8 9.89998 14.2 8.19998 12.3 8.09998Z" fill="white"/>
<path fill-rule="evenodd" clip-rule="evenodd" d="M14.8 11.4C14.8 10.3 13.8 9.19998 12.6 9.09998C12.4 9.09998 12.2 8.99998 12.1 9.29998C12.1 9.59998 12.3 9.49998 12.5 9.59998C13.7 9.89998 14.1 10.3 14.3 11.5C14.3 11.7 14.3 12 14.6 11.9C14.9 11.7 14.8 11.5 14.8 11.4Z" fill="white"/>
<path fill-rule="evenodd" clip-rule="evenodd" d="M13.9 11.2C13.9 10.6 13.3 10 12.8 10C12.7 10 12.5 10 12.5 10.2C12.4 10.4 12.6 10.5 12.7 10.5C13.2 10.6 13.4 10.9 13.5 11.4C13.5 11.5 13.6 11.6 13.7 11.6C13.9 11.5 13.9 11.3 13.9 11.2Z" fill="white"/>
<path d="M16.8 5.80002C15.5 5.20002 14 4.90002 12.1 4.90002H12C11.9 4.90002 11.8 4.90002 11.6 4.90002H11.4C9.79998 4.90002 7.99998 5.00002 6.59998 6.00002C4.79998 7.40002 4.59998 9.90002 4.59998 11.6C4.59998 15.2 5.79998 17.4 8.19998 18.2V19.5C8.19998 20.2 8.39998 20.3 8.49998 20.3C8.49998 20.3 8.59998 20.3 8.69998 20.3C8.99998 20.3 9.49998 20 10.9 18.4H11C11.3 18.4 11.6 18.4 11.8 18.4H12C12.8 18.4 13.6 18.4 14.4 18.3C15.4 18.2 16.8 17.9 17.8 16.9C19.3 15.4 19.3 13 19.3 11.5C19.3 10 19.3 7.00002 16.8 5.80002ZM17 16.2C16.2 16.9 15.1 17.2 14.2 17.3C13.5 17.4 12.7 17.4 11.9 17.4H11.6H11.5C11.3 17.4 11 17.4 10.8 17.4C10.5 17.8 10.2 18.1 9.89998 18.5C9.39998 19.1 8.89998 19.5 8.69998 19.7C8.69998 19.6 8.69998 19.6 8.69998 19.5V18.3V17.2C8.49998 17.1 8.29998 17.1 8.09998 17C6.39998 16.3 5.59998 14.5 5.59998 11.6C5.59998 9.90002 5.79998 7.90002 7.19998 6.90002C8.39998 6.10002 9.99998 6.00002 11.5 6.00002H11.7C11.8 6.00002 11.9 6.00002 12 6.00002C13.8 6.00002 15.2 6.20002 16.3 6.80002C18.1 7.70002 18.2 9.80002 18.2 11.7C18.2 13.4 18.1 15.2 17 16.2Z" fill="white"/>
</g>
<defs>
<clipPath id="clip0">
<rect width="24" height="24.8" fill="white"/>
</clipPath>
</defs>
</svg>
