<svg width="20" height="20" viewBox="0 0 20 20" fill="none" xmlns="http://www.w3.org/2000/svg">
<path d="M10 5.03906C6.17879 5.03906 2.71351 7.12968 0.15649 10.5254C-0.0521632 10.8036 -0.0521632 11.1923 0.15649 11.4705C2.71351 14.8703 6.17879 16.9609 10 16.9609C13.8212 16.9609 17.2865 14.8703 19.8435 11.4746C20.0522 11.1964 20.0522 10.8077 19.8435 10.5295C17.2865 7.12968 13.8212 5.03906 10 5.03906ZM10.2741 15.1976C7.73755 15.3572 5.64284 13.2665 5.80239 10.7259C5.93331 8.63117 7.63118 6.9333 9.72589 6.80238C12.2625 6.64283 14.3572 8.73345 14.1976 11.2741C14.0626 13.3647 12.3647 15.0626 10.2741 15.1976ZM10.1473 13.2584C8.78081 13.3443 7.65163 12.2192 7.74164 10.8527C7.81119 9.72353 8.72763 8.81118 9.85681 8.73754C11.2233 8.65162 12.3525 9.77671 12.2625 11.1432C12.1888 12.2765 11.2724 13.1888 10.1473 13.2584Z" fill="#1F1F1F"/>
<rect x="1.51472" y="1.51471" width="24" height="1" transform="rotate(45 1.51472 1.51471)" fill="#1F1F1F"/>
<rect x="2.22183" y="0.807617" width="24" height="1" transform="rotate(45 2.22183 0.807617)" fill="white"/>
</svg>
