<svg width="25" height="25" viewBox="0 0 25 25" fill="none" xmlns="http://www.w3.org/2000/svg">
<path fill-rule="evenodd" clip-rule="evenodd" d="M24.3611 11.2278C24.4796 12.1759 24.4796 13.1241 24.3611 14.0722C23.7093 19.5636 19.3636 23.9093 13.8722 24.5611C12.9241 24.6796 11.9759 24.6796 11.0278 24.5611C5.53643 23.9093 1.19076 19.5636 0.538901 14.0722C0.420382 13.1241 0.420382 12.1759 0.538901 11.2278C1.19076 5.73645 5.53643 1.39076 11.0278 0.738913C11.9759 0.620395 12.9241 0.620395 13.8722 0.738913C19.3636 1.39076 23.6895 5.73645 24.3611 11.2278Z" fill="url(#paint0_linear)"/>
<path d="M19.8969 9.01547C19.7981 8.00806 19.4031 7.11917 18.6525 6.40806C17.8623 5.65744 16.9142 5.32164 15.8475 5.26238C14.05 5.16361 9.78333 5.10435 8.2821 5.34139C6.56358 5.61793 5.4574 6.62534 4.98333 8.30435C4.62777 9.60806 4.68703 15.5932 4.90432 16.8772C5.20061 18.6352 6.22777 19.7611 7.96604 20.2154C9.17098 20.5315 15.0969 20.492 16.4204 20.2747C18.1784 19.9982 19.3043 18.9512 19.7586 17.213C20.1537 15.9093 20.0352 10.2204 19.8969 9.01547ZM18.4944 16.6599C18.2969 18.0031 17.408 18.813 16.0648 18.971C14.8401 19.1093 9.32901 19.1883 8.18333 18.8525C7.09691 18.5562 6.46481 17.7858 6.28703 16.6994C6.10925 15.6525 6.06975 10.3982 6.28703 8.99571C6.48456 7.67225 7.37345 6.84263 8.71666 6.70436C10.0599 6.54633 14.9389 6.52658 16.2426 6.74386C17.566 6.94139 18.3957 7.83028 18.5537 9.17349C18.6722 10.4179 18.7117 15.3167 18.4944 16.6599ZM12.3907 8.9167C10.2179 8.9167 8.47963 10.6747 8.47963 12.8278C8.47963 15.0006 10.2376 16.7389 12.3907 16.7389C14.5438 16.7389 16.3018 14.9809 16.3018 12.8278C16.3018 10.6747 14.5636 8.9167 12.3907 8.9167ZM12.371 15.3562C10.9685 15.3364 9.84259 14.1907 9.86234 12.808C9.8821 11.4056 11.0278 10.2796 12.4105 10.2994C13.813 10.3191 14.9389 11.4648 14.9191 12.8475C14.8994 14.25 13.7537 15.3759 12.371 15.3562ZM17.3685 8.75868C17.3685 9.27226 16.9537 9.66732 16.4401 9.66732C15.9265 9.66732 15.5315 9.2525 15.5315 8.73892C15.5315 8.22534 15.9463 7.83028 16.4599 7.83028C16.9735 7.85003 17.3685 8.26485 17.3685 8.75868Z" fill="white"/>
<defs>
<linearGradient id="paint0_linear" x1="8.20077" y1="23.0121" x2="18.3326" y2="-1.76677" gradientUnits="userSpaceOnUse">
<stop stop-color="#FFC658"/>
<stop offset="0.3262" stop-color="#F62B37"/>
<stop offset="0.6398" stop-color="#C82091"/>
<stop offset="0.9892" stop-color="#3542E0"/>
</linearGradient>
</defs>
</svg>
