<svg width="24" height="24" viewBox="0 0 24 24" fill="none" xmlns="http://www.w3.org/2000/svg">
<g clip-path="url(#clip0)">
<path d="M12 23.8C18.6 23.8 23.9 18.5 23.9 11.9C23.9 5.3 18.6 0 12 0C5.40001 0 0.200012 5.4 0.200012 11.9C0.200012 18.5 5.50001 23.8 12 23.8Z" fill="#07BB07"/>
<path fill-rule="evenodd" clip-rule="evenodd" d="M15.4 13.3C15.2 13.2 14.4 12.8 14.2 12.7C14 12.6 13.9 12.6 13.8 12.8C13.7 13 13.3 13.3 13.2 13.5C13.1 13.6 13 13.6 12.8 13.5C12.6 13.4 12.1 13.2 11.4 12.6C10.9 12.1 10.6 11.5 10.5 11.4C10.4 11.2 10.5 11.1 10.6 11C10.7 10.9 10.8 10.8 10.9 10.7C11 10.6 11 10.5 11.1 10.4C11.2 10.3 11.1 10.2 11.1 10.1C11.1 10 10.7 9.10002 10.6 8.80002C10.5 8.40002 10.3 8.50002 10.2 8.50002C10.1 8.50002 10 8.50002 9.9 8.50002C9.8 8.50002 9.6 8.50002 9.4 8.70002C9.2 8.70002 8.8 9.20002 8.7 10C8.7 10.9 9.3 11.7 9.3 11.8C9.4 11.9 10.4 13.8 12.2 14.6C14 15.4 14 15.1 14.3 15.1C14.6 15.1 15.4 14.7 15.5 14.3C15.7 13.9 15.7 13.5 15.6 13.5C15.7 13.4 15.6 13.4 15.4 13.3ZM12.2 17.4C11 17.4 10 17 9.1 16.5L6.9 17.2L7.6 15.1C6.9 14.2 6.5 13 6.5 11.7C6.5 8.60002 9 6.00002 12.2 6.00002C15.4 6.00002 17.9 8.60002 17.9 11.7C17.9 14.9 15.3 17.4 12.2 17.4ZM12.2 4.90002C8.4 4.90002 5.3 8.00002 5.3 11.8C5.3 13.1 5.7 14.3 6.3 15.4L5 19L8.8 17.8C9.8 18.3 10.9 18.7 12.1 18.7C15.9 18.7 19 15.6 19 11.8C19 7.90002 16 4.90002 12.2 4.90002Z" fill="#F1F2F2"/>
</g>
<defs>
<clipPath id="clip0">
<rect width="24" height="23.9" fill="white"/>
</clipPath>
</defs>
</svg>
